# xmcd
#
# Track frame offsets:
#	150
#	14262
#	31190
#	46195
#	65445
#	80835
#	91832
#	106957
#	125417
#	143255
#	161025
#	169215
#	180692
#	194667
#	204542
#	219127
#	228297
#	244580
#	260897
#	271522
#	282752
#
# Disc length: 3985 seconds
#
# Revision: 0
# Processed by: cddbd v1.5.2PL0 Copyright (c) Steve Scherf et al.
# Submitted via: EasyCDDAExtractor 2010.6.0.0
#
DISCID=1d0f8f15
DTITLE=Varios - Ahora esto si es musica 1993
DYEAR=1993
DGENRE=dance
TTITLE0=Life
TTITLE1=More and more
TTITLE2=Luv 4 luv
TTITLE3=Funky town
TTITLE4=Tribal dance
TTITLE5=Cowboy
TTITLE6=Chiquitere
TTITLE7=Forever young
TTITLE8=Without you
TTITLE9=Sweet harmony
TTITLE10=Here we go
TTITLE11=Batucagum
TTITLE12=Everybody
TTITLE13=Cant help falling in love
TTITLE14=M-usic
TTITLE15=Dance all days
TTITLE16=Tarzan boy
TTITLE17=Miguel son mi
TTITLE18=Dont you
TTITLE19=All right
TTITLE20=The final program 
EXTD=
EXTT0=
EXTT1=
EXTT2=
EXTT3=
EXTT4=
EXTT5=
EXTT6=
EXTT7=
EXTT8=
EXTT9=
EXTT10=
EXTT11=
EXTT12=
EXTT13=
EXTT14=
EXTT15=
EXTT16=
EXTT17=
EXTT18=
EXTT19=
EXTT20=
PLAYORDER=
